<svg class="icon" viewBox="0 0 1073 1024" version="1.1" xmlns="http://www.w3.org/2000/svg" width="32" height="32"><path d="M264.721092 483.008277a78.583566 78.583566 0 1 0 78.583566-78.583566 78.134517 78.134517 0 0 0-78.583566 78.583566z m407.90484-78.583566a78.583566 78.583566 0 1 0 78.583566 78.583566 79.25714 79.25714 0 0 0-78.583566-78.583566z m357.892014 16.0535h-5.613112c-53.549087-185.681741-221.381132-269.42937-292.836047-303.557091-3.592392-1.796196-5.613112-3.592392-8.924848-5.613111a79.313271 79.313271 0 0 0 23.238283-37.495588 52.931645 52.931645 0 0 0-14.257304-48.216631c-10.721044-12.517239-33.678671-37.495587-171.424437-19.645891C426.771632 20.207203 110.753433 127.361509 48.223367 420.197555H41.094715a40.414406 40.414406 0 0 0-41.087979 41.087979v130.336458a40.414406 40.414406 0 0 0 41.087979 41.087979h7.128652c46.420435 228.565916 239.286959 328.535438 424.9687 348.012936v1.796196a40.414406 40.414406 0 0 0 41.087979 41.087979h167.832045a40.414406 40.414406 0 0 0 41.087979-41.087979v-97.780409a40.414406 40.414406 0 0 0-41.087979-41.087979h-167.832045a40.414406 40.414406 0 0 0-41.087979 41.087979v5.613112c-107.154306-12.517239-287.447459-66.066327-335.66409-262.469111a44.904895 44.904895 0 0 0 23.238283-37.495588V459.769994a40.63893 40.63893 0 0 0-21.105301-35.699392c71.398783-278.522611 428.504961-330.331634 432.209615-332.127829 23.238283-3.592392 41.087979-3.592392 57.141479-5.613112a74.036946 74.036946 0 0 0-5.613112 28.570739 72.353012 72.353012 0 0 0 28.570739 55.345283 168.393356 168.393356 0 0 0 42.828044 24.978348c62.473935 30.366935 190.845804 94.637066 239.286959 228.565916a40.63893 40.63893 0 0 0-21.442087 35.699391v130.336458a40.414406 40.414406 0 0 0 41.087979 41.087979h78.583566a40.414406 40.414406 0 0 0 41.087979-41.087979V459.769994a42.884175 42.884175 0 0 0-42.884174-39.291783z" fill="#1296db" p-id="2858"></path></svg>